<?xml version="1.0" encoding="iso-8859-1"?>
<!-- Generator: Adobe Illustrator 19.0.0, SVG Export Plug-In . SVG Version: 6.00 Build 0)  -->
<svg version="1.1" id="Layer_1" xmlns="http://www.w3.org/2000/svg" xmlns:xlink="http://www.w3.org/1999/xlink" x="0px" y="0px"
	 viewBox="0 0 512 512" style="enable-background:new 0 0 512 512;" xml:space="preserve">
<g>
	<g>
		<g>
			<path d="M256,0C114.618,0,0,114.618,0,256s114.618,256,256,256s256-114.618,256-256S397.382,0,256,0z M256,469.333
				c-117.818,0-213.333-95.515-213.333-213.333S138.182,42.667,256,42.667S469.333,138.182,469.333,256S373.818,469.333,256,469.333
				z"/>
			<path d="M326.248,283.582l-48.915,48.915V128c0-11.782-9.551-21.333-21.333-21.333s-21.333,9.551-21.333,21.333v204.497
				l-48.915-48.915c-8.331-8.331-21.839-8.331-30.17,0s-8.331,21.839,0,30.17l85.333,85.333c0.004,0.004,0.008,0.006,0.011,0.01
				c0.494,0.493,1.012,0.96,1.552,1.403c0.247,0.203,0.507,0.379,0.761,0.569c0.303,0.227,0.6,0.462,0.915,0.673
				c0.304,0.203,0.619,0.379,0.93,0.565c0.286,0.171,0.565,0.35,0.86,0.508c0.317,0.17,0.643,0.313,0.967,0.466
				c0.308,0.145,0.61,0.299,0.925,0.43c0.314,0.13,0.635,0.235,0.953,0.349c0.338,0.122,0.672,0.251,1.018,0.356
				c0.318,0.096,0.642,0.167,0.964,0.248c0.353,0.089,0.701,0.188,1.061,0.259c0.372,0.074,0.748,0.117,1.122,0.171
				c0.314,0.045,0.622,0.105,0.941,0.136c0.693,0.068,1.388,0.105,2.083,0.105c0.007,0,0.015,0.001,0.022,0.001
				s0.015-0.001,0.022-0.001c0.695-0.001,1.39-0.037,2.083-0.105c0.318-0.031,0.627-0.091,0.941-0.136
				c0.375-0.054,0.75-0.097,1.122-0.171c0.359-0.071,0.708-0.17,1.061-0.259c0.322-0.081,0.645-0.152,0.964-0.248
				c0.346-0.105,0.68-0.234,1.018-0.356c0.318-0.114,0.639-0.219,0.953-0.349c0.315-0.131,0.618-0.284,0.925-0.43
				c0.324-0.153,0.65-0.296,0.967-0.466c0.294-0.158,0.574-0.337,0.86-0.508c0.311-0.186,0.626-0.362,0.93-0.565
				c0.315-0.211,0.612-0.446,0.915-0.673c0.254-0.19,0.514-0.366,0.761-0.569c0.54-0.443,1.059-0.91,1.552-1.403
				c0.004-0.004,0.008-0.006,0.011-0.01l85.333-85.333c8.331-8.331,8.331-21.839,0-30.17
				C348.087,275.251,334.58,275.251,326.248,283.582z"/>
		</g>
	</g>
</g>
<g>
</g>
<g>
</g>
<g>
</g>
<g>
</g>
<g>
</g>
<g>
</g>
<g>
</g>
<g>
</g>
<g>
</g>
<g>
</g>
<g>
</g>
<g>
</g>
<g>
</g>
<g>
</g>
<g>
</g>
</svg>
