<svg id="Layer_1" xmlns="http://www.w3.org/2000/svg" viewBox="0 0 771 771"><style>.st0{fill:#b7b7b7}</style><title>openolat-logo</title><g id="Layer_2"><path class="st0" d="M172.7 568.5c-26.7 0-50.7-4.6-71.9-13.9-20.4-8.8-38.8-21.7-54-37.9-14.9-16-26.4-35.2-34.5-57.5C4.1 436.8 0 412.7 0 386.6c-.2-24.3 3.8-48.4 11.7-71.4 7.3-21.5 18.7-41.4 33.4-58.6C59.7 239.8 77.7 226.3 98 217c20.8-9.7 44.6-14.5 71.4-14.5 22.1-.2 44 3.8 64.6 11.7 20 7.8 39.1 17.9 56.8 30.1 17.9 12.3 34.6 26.1 50.1 41.2 15.6 15.2 30.8 30.7 45.7 46.3 14.1-15.6 28.8-31 44-46.3 15.1-15.1 31.5-28.9 49-41.2 17.3-12.2 36-22.3 55.7-30.1 20.1-7.9 41.4-11.9 63-11.7 26 0 49.6 4.7 70.7 14 20.7 8.9 39.2 22 54.6 38.5 15.5 16.8 27.4 36.5 35.1 58 8.3 22.9 12.4 47.1 12.3 71.4 0 26-3.9 50.2-11.7 72.5-7.8 22.4-19.1 41.7-34 58-15.1 16.6-33.5 29.9-54 39.1-21.2 9.7-45.1 14.5-71.9 14.5-21.5.2-42.8-3.4-63-10.6-19.5-6.9-38-16.3-55.2-27.9-17.4-11.8-34-24.8-49.6-39-16-14.5-31-29.6-45.1-45.2-14.9 14.9-29.9 29.5-45.1 44-15.2 14.5-31.6 27.7-49 39.6-17.3 11.8-36 21.3-55.7 28.4-19.6 7.2-41 10.7-64 10.7zm-.3-86c15.3-.1 30.4-3.1 44.6-8.9 15.2-6.1 29.6-14 42.9-23.4 13.6-9.5 26.6-19.7 39.1-30.7 12.3-10.8 23.2-21.4 32.9-31.8-10.4-9.7-21.9-20.4-34.6-32.3-12.5-11.8-25.9-22.6-40.1-32.3-13.8-9.5-28.3-17.7-43.5-24.5-14.9-6.7-29.7-10-44.6-10-27.5 0-49.1 10-64.7 30.1C89 338 80.8 362 81 386.7c0 28.2 8.2 51.3 24.5 69.1s38.7 26.7 66.9 26.7zm429.5 0c28.2 0 50-9.1 65.2-27.3s22.9-40.7 22.9-67.5c0-28.2-7.8-51.8-23.4-70.8-15.6-19-38.3-28.4-68-28.4-14.9 0-29.7 3.3-44.6 10-15.1 6.8-29.5 15.3-42.9 25.1-13.8 10-26.8 21-39.1 32.9-12.3 11.9-23.2 22.7-32.9 32.3 11.1 10.4 22.8 21.2 35.1 32.3 12 11 24.9 21 38.5 30.1 13.3 8.9 27.5 16.4 42.4 22.3 14.9 6 30.8 9.1 46.8 9z" id="Band"/></g></svg>