<?xml version="1.0" encoding="iso-8859-1"?>
<!-- Generator: Adobe Illustrator 19.0.0, SVG Export Plug-In . SVG Version: 6.00 Build 0)  -->
<svg version="1.1" id="Capa_1" xmlns="http://www.w3.org/2000/svg" xmlns:xlink="http://www.w3.org/1999/xlink" x="0px" y="0px"
	 viewBox="0 0 384.97 384.97" style="enable-background:new 0 0 384.97 384.97;" xml:space="preserve">
<g>
	<g id="Arrow_Up_Circle">
		<path d="M192.485,0C86.173,0,0,86.185,0,192.485C0,298.797,86.173,384.97,192.485,384.97c106.3,0,192.485-86.173,192.485-192.485
			C384.97,86.185,298.785,0,192.485,0z M192.485,360.909c-93.018,0-168.424-75.406-168.424-168.424S99.467,24.061,192.485,24.061
			s168.424,75.406,168.424,168.424S285.503,360.909,192.485,360.909z"/>
		<path d="M201.087,75.707c-2.262-2.238-5.426-3.525-8.602-3.525c-3.164,0-6.328,1.299-8.59,3.525l-84.2,82.997
			c-4.752,4.704-4.74,12.319,0,17.011c4.752,4.704,12.439,4.704,17.191,0l63.46-62.558v187.601c0,6.641,5.438,12.03,12.151,12.03
			c6.713,0,12.151-5.39,12.151-12.03V113.169l63.46,62.558c4.74,4.692,12.439,4.692,17.179,0c4.74-4.704,4.74-12.319,0-17.011
			L201.087,75.707z"/>
	</g>
	<g>
	</g>
	<g>
	</g>
	<g>
	</g>
	<g>
	</g>
	<g>
	</g>
	<g>
	</g>
</g>
<g>
</g>
<g>
</g>
<g>
</g>
<g>
</g>
<g>
</g>
<g>
</g>
<g>
</g>
<g>
</g>
<g>
</g>
<g>
</g>
<g>
</g>
<g>
</g>
<g>
</g>
<g>
</g>
<g>
</g>
</svg>
